<?xml version="1.0" encoding="UTF-8" standalone="no"?>
<!-- Created with Inkscape (http://www.inkscape.org/) -->

<svg
   width="16"
   height="16"
   viewBox="0 0 4.2333332 4.2333335"
   version="1.1"
   id="svg5"
   xmlns="http://www.w3.org/2000/svg"
   xmlns:svg="http://www.w3.org/2000/svg">
  <defs
     id="defs2" />
  <g
     id="layer1">
    <path
       style="fill:#ffffff;stroke-width:5.54107"
       id="path1232"
       d="m -5.5466807,-11.068908 c 1.0791026,0 1.8362958,3.7433096 2.7093081,4.3775902 0.8730124,0.6342806 4.667097,0.1976682 5.0005581,1.2239558 0.333461,1.0262875 -2.99265235,2.9031673 -3.3261134,3.9294549 -0.3334611,1.02628758 1.25421861,4.4997558 0.38120623,5.1340365 C -1.654734,4.2304099 -4.4675783,1.6470759 -5.5466809,1.6470759 c -1.0791027,0 -3.8919473,2.5833338 -4.7649601,1.9490532 -0.873012,-0.6342806 0.7146681,-4.10774862 0.3812071,-5.1340362 -0.3334611,-1.0262876 -3.6595741,-2.9031677 -3.3261131,-3.9294553 0.333461,-1.0262876 4.1275454,-0.5896748 5.0005577,-1.2239554 0.8730124,-0.6342806 1.6302059,-4.3775902 2.7093086,-4.3775902 z"
       transform="matrix(0.23874756,0,0,0.23874756,3.4409232,2.9967548)" />
  </g>
</svg>
